<?xml version="1.0" encoding="utf-8"?>
<!-- Generator: Adobe Illustrator 15.0.0, SVG Export Plug-In . SVG Version: 6.00 Build 0)  -->
<!DOCTYPE svg PUBLIC "-//W3C//DTD SVG 1.1//EN" "http://www.w3.org/Graphics/SVG/1.1/DTD/svg11.dtd">
<svg version="1.1" id="Layer_1" xmlns="http://www.w3.org/2000/svg" xmlns:xlink="http://www.w3.org/1999/xlink" x="0px" y="0px"
	 width="60px" height="32px" viewBox="0 0 60 32" enable-background="new 0 0 60 32" xml:space="preserve">
<g>
	<g>
		<path fill="#F1E7E7" d="M30,0.359c-8.638,0-15.641,7.003-15.641,15.641S21.362,31.641,30,31.641S45.641,24.638,45.641,16
			S38.638,0.359,30,0.359z M30,28.24c-6.759,0-12.24-5.481-12.24-12.24c0-6.76,5.481-12.24,12.24-12.24
			c6.761,0,12.24,5.48,12.24,12.24C42.24,22.759,36.761,28.24,30,28.24z"/>
		<polygon fill="#F1E7E7" points="31.19,7.16 28.81,7.16 28.81,16.493 34.599,22.28 36.282,20.598 31.19,15.507 		"/>
	</g>
</g>
</svg>
