<?xml version="1.0" encoding="utf-8"?>
<!-- Generator: Adobe Illustrator 15.0.0, SVG Export Plug-In . SVG Version: 6.00 Build 0)  -->
<!DOCTYPE svg PUBLIC "-//W3C//DTD SVG 1.1//EN" "http://www.w3.org/Graphics/SVG/1.1/DTD/svg11.dtd">
<svg version="1.1" id="Layer_1" xmlns="http://www.w3.org/2000/svg" xmlns:xlink="http://www.w3.org/1999/xlink" x="0px" y="0px"
	 width="60px" height="32px" viewBox="0 0 60 32" enable-background="new 0 0 60 32" xml:space="preserve">
<path fill="#6B3E5B" d="M58.665,19.155c0-6.768-5.642-12.254-12.601-12.254c-2.143,0-4.159,0.521-5.926,1.439
	c-2.044-4.566-6.627-7.748-11.953-7.748c-7.229,0-13.09,5.861-13.09,13.09c-3.824,0-7.016,2.715-7.75,6.322
	c-0.102-0.004-0.203-0.008-0.306-0.008c-3.151,0-5.705,2.555-5.705,5.705s2.554,5.705,5.705,5.705c0.044,0,0.087-0.002,0.13-0.004
	c0.011,0.002,0.021,0.004,0.031,0.004h38.895c0.001,0,0.002,0,0.004,0C53.042,31.39,58.665,25.911,58.665,19.155z"/>
</svg>
