<?xml version="1.0" encoding="utf-8"?>
<!-- Generator: Adobe Illustrator 15.0.0, SVG Export Plug-In . SVG Version: 6.00 Build 0)  -->
<!DOCTYPE svg PUBLIC "-//W3C//DTD SVG 1.1//EN" "http://www.w3.org/Graphics/SVG/1.1/DTD/svg11.dtd">
<svg version="1.1" id="Layer_1" xmlns="http://www.w3.org/2000/svg" xmlns:xlink="http://www.w3.org/1999/xlink" x="0px" y="0px"
	 width="60px" height="32px" viewBox="0 0 60 32" enable-background="new 0 0 60 32" xml:space="preserve">
<g>
	<g>
		<path fill="#6B3E5B" d="M52,29c0,1.104-0.896,2-2,2H9c-1.104,0-2-0.896-2-2V3c0-1.104,0.896-2,2-2h41c1.104,0,2,0.896,2,2V29z"/>
	</g>
	<g>
		<path fill="#F1E7E7" d="M48,11.5c0,0.276-0.224,0.5-0.5,0.5h-6c-0.276,0-0.5-0.224-0.5-0.5v-7C41,4.224,41.224,4,41.5,4h6
			C47.776,4,48,4.224,48,4.5V11.5z"/>
	</g>
	<g>
		<path fill="#F1E7E7" d="M34.035,15.5c0,0.134-0.112,0.5-0.25,0.5H15.76c-0.138,0-0.25-0.366-0.25-0.5s0.112-0.5,0.25-0.5h18.025
			C33.923,15,34.035,15.366,34.035,15.5z"/>
		<path fill="none" stroke="#F1E7E7" stroke-miterlimit="10" d="M34.035,15.5c0,0.134-0.112,0-0.25,0H15.76
			c-0.138,0-0.25,0.134-0.25,0s0.112,0,0.25,0h18.025C33.923,15.5,34.035,15.366,34.035,15.5z"/>
	</g>
	<g>
		<path fill="#F1E7E7" d="M34.035,19.5c0,0.135-0.112,0.5-0.25,0.5H15.76c-0.138,0-0.25-0.365-0.25-0.5s0.112-0.5,0.25-0.5h18.025
			C33.923,19,34.035,19.365,34.035,19.5z"/>
		<path fill="none" stroke="#F1E7E7" stroke-miterlimit="10" d="M34.035,19.5c0,0.135-0.112,0-0.25,0H15.76
			c-0.138,0-0.25,0.135-0.25,0s0.112,0,0.25,0h18.025C33.923,19.5,34.035,19.365,34.035,19.5z"/>
	</g>
	<g>
		<path fill="#F1E7E7" d="M34.035,23.5c0,0.135-0.112,0.5-0.25,0.5H15.76c-0.138,0-0.25-0.365-0.25-0.5s0.112-0.5,0.25-0.5h18.025
			C33.923,23,34.035,23.365,34.035,23.5z"/>
		<path fill="none" stroke="#F1E7E7" stroke-miterlimit="10" d="M34.035,23.5c0,0.135-0.112,0-0.25,0H15.76
			c-0.138,0-0.25,0.135-0.25,0s0.112,0,0.25,0h18.025C33.923,23.5,34.035,23.365,34.035,23.5z"/>
	</g>
</g>
</svg>
