<?xml version="1.0" encoding="utf-8"?>
<!-- Generator: Adobe Illustrator 15.0.0, SVG Export Plug-In . SVG Version: 6.00 Build 0)  -->
<!DOCTYPE svg PUBLIC "-//W3C//DTD SVG 1.1//EN" "http://www.w3.org/Graphics/SVG/1.1/DTD/svg11.dtd">
<svg version="1.1" id="Layer_1" xmlns="http://www.w3.org/2000/svg" xmlns:xlink="http://www.w3.org/1999/xlink" x="0px" y="0px"
	 width="60px" height="32px" viewBox="0 0 60 32" enable-background="new 0 0 60 32" xml:space="preserve">
<g id="Layer_2">
	<path fill="#F1E7E7" d="M30,0.303c-2.693,0.126-10.273,5.009-8.675,14.548l2.049,12.27h13.251l2.05-12.27
		C40.274,5.312,32.694,0.429,30,0.303z M30.079,21.469c-1.59,0-2.877-1.288-2.877-2.878c0-1.193,0.723-2.214,1.758-2.65
		c0.343-0.147,0.722-0.227,1.119-0.227c1.59,0,2.878,1.287,2.878,2.877S31.669,21.469,30.079,21.469z M30.079,11.778
		c-1.59,0-2.877-1.288-2.877-2.877c0-1.193,0.723-2.216,1.758-2.652c0.344-0.146,0.722-0.226,1.119-0.226
		c1.59,0,2.878,1.287,2.878,2.877S31.669,11.778,30.079,11.778z M26.095,28.282l-0.68,3.415h9.171l-0.68-3.415H26.095z
		 M45.595,23.946c-0.333-1.745-3.534-5.131-6.056-7.205l-0.002,0.006l-1.785,10.689l5.085,4.261
		C43.325,30.98,46.286,27.587,45.595,23.946z M20.462,16.741c-2.522,2.072-5.723,5.46-6.056,7.205
		c-0.692,3.641,2.27,7.034,2.758,7.751l5.085-4.261l-1.786-10.689L20.462,16.741z"/>
</g>
</svg>
