<?xml version="1.0" encoding="utf-8"?>
<!-- Generator: Adobe Illustrator 15.0.0, SVG Export Plug-In . SVG Version: 6.00 Build 0)  -->
<!DOCTYPE svg PUBLIC "-//W3C//DTD SVG 1.1//EN" "http://www.w3.org/Graphics/SVG/1.1/DTD/svg11.dtd">
<svg version="1.1" id="Layer_1" xmlns="http://www.w3.org/2000/svg" xmlns:xlink="http://www.w3.org/1999/xlink" x="0px" y="0px"
	 width="60px" height="32px" viewBox="0 0 60 32" enable-background="new 0 0 60 32" xml:space="preserve">
<path fill="#6B3E5B" d="M52.577,14.792c-1.59,0.271-3.894-0.011-5.117-0.519c2.539-0.208,4.257-1.363,4.917-2.93
	c-0.911,0.564-3.755,1.178-5.322,0.593c-0.077-0.368-0.158-0.72-0.247-1.037c-1.192-4.391-5.283-7.929-9.567-7.501
	c0.348-0.14,0.695-0.27,1.046-0.389c0.475-0.17,3.241-0.621,2.806-1.596c-0.37-0.863-3.752,0.646-4.389,0.846
	c0.842-0.317,2.231-0.859,2.382-1.826c-1.289,0.176-2.556,0.784-3.527,1.671c0.352-0.378,0.617-0.842,0.676-1.341
	c-3.436,2.198-5.442,6.625-7.067,10.922c-1.273-1.237-2.407-2.212-3.419-2.754c-2.844-1.525-6.248-3.118-11.586-5.103
	c-0.162,1.767,0.872,4.12,3.859,5.681c-0.645-0.086-1.83,0.109-2.771,0.335c0.382,2.027,1.641,3.694,5.052,4.503
	c-1.559,0.101-2.365,0.459-3.09,1.221c0.71,1.409,2.438,3.067,5.557,2.728c-3.466,1.495-1.416,4.264,1.405,3.849
	c-4.805,4.977-12.389,4.605-16.75,0.449c11.37,15.507,36.085,9.169,39.767-5.767C49.949,16.851,51.57,15.874,52.577,14.792z"/>
</svg>
