<?xml version="1.0" encoding="utf-8"?>
<!-- Generator: Adobe Illustrator 15.0.0, SVG Export Plug-In . SVG Version: 6.00 Build 0)  -->
<!DOCTYPE svg PUBLIC "-//W3C//DTD SVG 1.1//EN" "http://www.w3.org/Graphics/SVG/1.1/DTD/svg11.dtd">
<svg version="1.1" id="Layer_1" xmlns="http://www.w3.org/2000/svg" xmlns:xlink="http://www.w3.org/1999/xlink" x="0px" y="0px"
	 width="60px" height="32px" viewBox="0 0 60 32" enable-background="new 0 0 60 32" xml:space="preserve">
<g>
	<path fill="#F1E7E7" d="M27.9,0.913c-0.312-0.311-0.926-0.565-1.366-0.565H15.148c-0.44,0-0.8,0.36-0.8,0.8v11.39
		c0,0.44,0.254,1.054,0.565,1.366l17.181,17.184c0.311,0.311,0.565,0.205,0.565-0.234v-11.39c0-0.439,0.36-0.8,0.8-0.8h11.393
		c0.439,0,0.545-0.255,0.234-0.565L27.9,0.913z M22.898,11.76c-1.579,0-2.857-1.278-2.857-2.857s1.278-2.858,2.857-2.858
		c1.581,0,2.858,1.279,2.858,2.858S24.479,11.76,22.898,11.76z"/>
</g>
</svg>
